<?xml version="1.0" encoding="utf-8"?>
<!-- Generator: Adobe Illustrator 16.2.1, SVG Export Plug-In . SVG Version: 6.00 Build 0)  -->
<!DOCTYPE svg PUBLIC "-//W3C//DTD SVG 1.1//EN" "http://www.w3.org/Graphics/SVG/1.1/DTD/svg11.dtd">
<svg version="1.1" id="Layer_1" xmlns="http://www.w3.org/2000/svg" xmlns:xlink="http://www.w3.org/1999/xlink" x="0px" y="0px"
	 width="219.18px" height="366.667px" viewBox="0 0 219.18 366.667" enable-background="new 0 0 219.18 366.667"
	 xml:space="preserve">
<g>
	<path d="M21.332,351.191l19.122-12.646l-9.121-139.212l62,0.667l-7.004,137.342l17.67,14.597c0,0-17.669,7.961-30.29-3.318
		l-2.524,1.99l-7.067-3.98l-7.573,4.645l-5.049-1.327C51.495,349.947,31.05,365.704,21.332,351.191z"/>
	<g>
		<path fill="#FFFFFF" d="M168.501,102L159,101.875c0,0-9.125,4.25-13.499-0.708c-0.883-1.001-6.468-0.734-5.667,0.333
			c2.001,2.667,3.666,6.167,3.666,6.167s-0.431,0.154-1.184,0.646l6.309,9.312c1.438-0.767,4.375-3.125,4.375-3.125
			s4.5-3.5,11.501-5.5c2.2-0.628,10.358-6.22,13.249-7.125C179.053,101.467,168.501,102,168.501,102z"/>
		<path stroke="#000000" stroke-miterlimit="10" d="M115.334,128.625c0.282-0.056,0.405-0.673,0.402-1.724
			C114.334,128.192,113.99,128.894,115.334,128.625z"/>
		<path stroke="#000000" stroke-miterlimit="10" d="M115.736,126.901c0.003,1.051-0.12,1.668-0.402,1.724
			C113.99,128.894,114.334,128.192,115.736,126.901C115.713,118.21,107,79.646,107,79.646l-8.5,23.271
			c0,0-5.833,63.75,12.167,61.083c6.121-0.907,32.404-36.273,38.833-45.5l-6.666-10.833
			C138.166,110.713,120.521,122.499,115.736,126.901z"/>
	</g>
	<polygon stroke="#000000" stroke-miterlimit="10" points="22,196.333 30.666,186.667 22,107 15.667,79.167 48.75,67.5 74.75,67.5 
		107.001,78.667 99.333,105 96,188 105.333,197 89.333,212.667 64,190.667 45.678,206.127 38.666,213.333 	"/>
	<polygon fill="#FFFFFF" points="49.271,70.317 52.5,57 71.489,59.839 73.727,70.812 	"/>
	<polygon fill="#FFFFFF" stroke="#000000" stroke-miterlimit="10" points="54,214.667 64,200.667 73.333,214.667 83.333,208 
		64,190.667 45.678,206.127 	"/>
	<path fill="#FFFFFF" d="M63.333,184.625c0,0-20.458-80.375-13.083-117.125L74,67.75C74,67.75,83.5,87,63.333,184.625z"/>
	<g>
		<path d="M26.25,150.75L25,110l-9.833-30.833c0,0-17.167,86.833-6.498,91.379c10.793,4.6,43.297,5.274,48.333,5.107l-0.042-17.368
			L26.25,150.75z"/>
		<path fill="#FFFFFF" stroke="#CCCCCC" stroke-width="0.25" stroke-miterlimit="10" d="M65.75,155.25
			c-2.287,0.196-8.706,3.043-8.706,3.043l-0.084-0.007l0.042,17.368c0.417-0.014,0.664-0.023,0.664-0.023S72.5,181.25,73,166.25
			C73.293,157.458,74.5,154.5,65.75,155.25z"/>
	</g>
	<linearGradient id="SVGID_1_" gradientUnits="userSpaceOnUse" x1="25.6123" y1="149.3203" x2="49.708" y2="191.0553">
		<stop  offset="0" style="stop-color:#FFFFFF"/>
		<stop  offset="0.4505" style="stop-color:#FDFDFD"/>
		<stop  offset="0.6563" style="stop-color:#F5F5F5"/>
		<stop  offset="0.8123" style="stop-color:#E9E9E9"/>
		<stop  offset="0.9425" style="stop-color:#D7D7D7"/>
		<stop  offset="1" style="stop-color:#CCCCCC"/>
	</linearGradient>
	<path fill="url(#SVGID_1_)" d="M24.834,151.167c0,0,0.769-2.15,1.416-2.167C36,148.75,50,153.75,56,156.25
		c1.403,0.585,1,2.25,1,2.25L55,188c0,0-35.61,7.826-33,0C22.667,186,24.834,151.167,24.834,151.167z"/>
	<polygon fill="#FFFFFF" stroke="#CCCCCC" stroke-width="0.25" stroke-miterlimit="10" points="49,67.25 50.75,63 62,67.75 72,63 
		74.75,67.5 72.25,73.5 51.75,73 	"/>
	<g>
		<circle cx="62.884" cy="71.245" r="4.128"/>
		<path d="M62,70.729c0,2.565-6.61,5.504-10.243,6.022c0,0-1.757-3.457-1.757-6.022v-0.344c0-2.565,0.861-5.241,1.529-5.217
			C54.738,65.283,62,67.82,62,70.385V70.729z"/>
		<path d="M63,70.729c0,2.565,6.109,5.504,9.742,6.022c0,0,1.258-3.457,1.258-6.022v-0.344c0-2.565-0.361-5.241-1.029-5.217
			C69.762,65.283,63,67.82,63,70.385V70.729z"/>
	</g>
	<path fill="#E2E2E2" d="M112.922,99c0.704,1,2.306,3,4.173,3h92.066c1.867,0,3.469-2,4.173-3H112.922z"/>
	<linearGradient id="SVGID_2_" gradientUnits="userSpaceOnUse" x1="114.3945" y1="81.8335" x2="211.6064" y2="81.8335">
		<stop  offset="0" style="stop-color:#FFFFFF"/>
		<stop  offset="1" style="stop-color:#B6B6B6"/>
	</linearGradient>
	<path fill="url(#SVGID_2_)" d="M211.606,98C210.362,79.997,189.078,65.667,163,65.667c-26.076,0-47.361,14.33-48.605,32.333
		H211.606z"/>
	<g>
		<path fill="#FFFFFF" d="M53.295,8.464l-0.39,1.367c-3.166,2.421-4.56,9.271-7.731,11.595c0.113,8.686-0.275,20.625-0.275,20.625
			s-0.259,6.249,1.237,8.982c0,0,8.331,12.888,17.02,12.399c3.328-0.187,12.725-5.208,15.817-14.645l-1.172-26.264
			c0,0,0-1.66,0.098-3.125l-5.077-8.787C61.106,11.784,53.295,8.464,53.295,8.464z"/>
		<path d="M79.981,9.897c-0.52-8.853-11.65-6.9-11.65-6.9l-4.882-1.758c0,0-4.1-3.515-11.911,5.077c0,0-2.539-2.734-6.639,0.977
			c0,0-1.171,1.367-0.195,6.053c0.289,1.382-0.242,4.082-0.195,7.713c3.172-2.323,5.231-8.807,8.397-11.228l0.39-1.367
			c0,0,7.812,3.32,19.527,2.148l5.584,10.012C79.264,18.744,80.299,15.292,79.981,9.897z"/>
	</g>
	<line fill="none" stroke="#000000" stroke-width="2" stroke-miterlimit="10" x1="56.96" y1="46.5" x2="62.441" y2="47"/>
	<line fill="none" stroke="#000000" stroke-width="2" stroke-miterlimit="10" x1="62.885" y1="47" x2="68.338" y2="46.541"/>
	<path fill="#FFFFFF" stroke="#CCCCCC" stroke-width="0.25" stroke-miterlimit="10" d="M44.882,30.333"/>
</g>
</svg>
